<svg xmlns="http://www.w3.org/2000/svg" width="32" height="32" viewBox="0 0 32 32" fill="none">
  <rect width="32" height="32" rx="6" fill="#1E1E1E"/>
  <path d="M8 10C8 9.44772 8.44772 9 9 9H15C15.5523 9 16 9.44772 16 10V11C16 11.5523 15.5523 12 15 12H11V14H14C14.5523 14 15 14.4477 15 15V19C15 19.5523 14.5523 20 14 20H8C7.44772 20 7 19.5523 7 19V18C7 17.4477 7.44772 17 8 17H12V15H9C8.44772 15 8 14.5523 8 14V10Z" fill="#10B981"/>
  <path d="M18 9C17.4477 9 17 9.44772 17 10V20C17 20.5523 17.4477 21 18 21H19C19.5523 21 20 20.5523 20 20V16H23V20C23 20.5523 23.4477 21 24 21H25C25.5523 21 26 20.5523 26 20V10C26 9.44772 25.5523 9 25 9H24C23.4477 9 23 9.44772 23 10V14H20V10C20 9.44772 19.5523 9 19 9H18Z" fill="#10B981"/>
</svg>

